<?xml version="1.0" encoding="UTF-8" standalone="no"?><svg xmlns="http://www.w3.org/2000/svg" xmlns:xlink="http://www.w3.org/1999/xlink" contentStyleType="text/css" height="906px" preserveAspectRatio="none" style="width:690px;height:906px;background:#FFFFFF;" version="1.1" viewBox="0 0 690 906" width="690px" zoomAndPan="magnify"><defs/><g><!--MD5=[e09c70f5ed827761793424ce6da8cca1]
class Intrument--><g id="elem_Intrument"><rect codeLine="1" fill="#F1F1F1" height="64.2969" id="Intrument" rx="2.5" ry="2.5" style="stroke:#181818;stroke-width:0.5;" width="171" x="294" y="7"/><ellipse cx="341.75" cy="23" fill="#A9DCDF" rx="11" ry="11" style="stroke:#181818;stroke-width:1.0;"/><path d="M341.8594,18.3438 L340.7031,23.4219 L343.0313,23.4219 L341.8594,18.3438 Z M340.375,16.1094 L343.3594,16.1094 L346.7188,28.5 L344.2656,28.5 L343.5,25.4375 L340.2188,25.4375 L339.4688,28.5 L337.0313,28.5 L340.375,16.1094 Z " fill="#000000"/><text fill="#000000" font-family="sans-serif" font-size="14" font-style="italic" lengthAdjust="spacing" textLength="67" x="362.25" y="27.8467">Intrument</text><line style="stroke:#181818;stroke-width:0.5;" x1="295" x2="464" y1="39" y2="39"/><text fill="#000000" font-family="sans-serif" font-size="14" lengthAdjust="spacing" textLength="159" x="300" y="55.9951">client: pyvisa.Resource</text><line style="stroke:#181818;stroke-width:0.5;" x1="295" x2="464" y1="63.2969" y2="63.2969"/></g><!--MD5=[8a8146ff89b20cc2efd6e16e3c0a6394]
class Register--><g id="elem_Register"><rect codeLine="5" fill="#F1F1F1" height="113.1875" id="Register" rx="2.5" ry="2.5" style="stroke:#181818;stroke-width:0.5;" width="370" x="313.5" y="131"/><ellipse cx="465.25" cy="147" fill="#A9DCDF" rx="11" ry="11" style="stroke:#181818;stroke-width:1.0;"/><path d="M465.3594,142.3438 L464.2031,147.4219 L466.5313,147.4219 L465.3594,142.3438 Z M463.875,140.1094 L466.8594,140.1094 L470.2188,152.5 L467.7656,152.5 L467,149.4375 L463.7188,149.4375 L462.9688,152.5 L460.5313,152.5 L463.875,140.1094 Z " fill="#000000"/><text fill="#000000" font-family="sans-serif" font-size="14" font-style="italic" lengthAdjust="spacing" textLength="58" x="485.75" y="151.8467">Register</text><line style="stroke:#181818;stroke-width:0.5;" x1="314.5" x2="682.5" y1="163" y2="163"/><text fill="#000000" font-family="sans-serif" font-size="14" lengthAdjust="spacing" textLength="159" x="319.5" y="179.9951">client: pyvisa.Resource</text><text fill="#000000" font-family="sans-serif" font-size="14" lengthAdjust="spacing" textLength="118" x="319.5" y="196.292">modifieable: bool</text><line style="stroke:#181818;stroke-width:0.5;" x1="314.5" x2="682.5" y1="203.5938" y2="203.5938"/><text fill="#000000" font-family="sans-serif" font-size="14" lengthAdjust="spacing" textLength="277" x="319.5" y="220.5889">set_by_bit_string(bit_string: str) -&gt; None</text><text fill="#000000" font-family="sans-serif" font-size="14" lengthAdjust="spacing" textLength="358" x="319.5" y="236.8857">set_by_int(int_: int, register_length: int = 8) -&gt; None</text></g><!--MD5=[f85ec16d1503a3c741b931a0907738d0]
class ESRRegister--><g id="elem_ESRRegister"><rect codeLine="13" fill="#F1F1F1" height="357.6406" id="ESRRegister" rx="2.5" ry="2.5" style="stroke:#181818;stroke-width:0.5;" width="296" x="265.5" y="542"/><ellipse cx="366.25" cy="558" fill="#ADD1B2" rx="11" ry="11" style="stroke:#181818;stroke-width:1.0;"/><path d="M369.2188,563.6406 Q368.6406,563.9375 368,564.0781 Q367.3594,564.2344 366.6563,564.2344 Q364.1563,564.2344 362.8281,562.5938 Q361.5156,560.9375 361.5156,557.8125 Q361.5156,554.6875 362.8281,553.0313 Q364.1563,551.375 366.6563,551.375 Q367.3594,551.375 368,551.5313 Q368.6563,551.6875 369.2188,551.9844 L369.2188,554.7031 Q368.5938,554.125 368,553.8594 Q367.4063,553.5781 366.7813,553.5781 Q365.4375,553.5781 364.75,554.6563 Q364.0625,555.7188 364.0625,557.8125 Q364.0625,559.9063 364.75,560.9844 Q365.4375,562.0469 366.7813,562.0469 Q367.4063,562.0469 368,561.7813 Q368.5938,561.5 369.2188,560.9219 L369.2188,563.6406 Z " fill="#000000"/><text fill="#000000" font-family="sans-serif" font-size="14" lengthAdjust="spacing" textLength="86" x="386.75" y="562.8467">ESRRegister</text><line style="stroke:#181818;stroke-width:0.5;" x1="266.5" x2="560.5" y1="574" y2="574"/><text fill="#000000" font-family="sans-serif" font-size="14" lengthAdjust="spacing" textLength="177" x="271.5" y="590.9951">operation_complete: bool</text><text fill="#000000" font-family="sans-serif" font-size="14" lengthAdjust="spacing" textLength="118" x="271.5" y="607.292">query_error: bool</text><text fill="#000000" font-family="sans-serif" font-size="14" lengthAdjust="spacing" textLength="185" x="271.5" y="623.5889">device_depend_error: bool</text><text fill="#000000" font-family="sans-serif" font-size="14" lengthAdjust="spacing" textLength="135" x="271.5" y="639.8857">execute_error: bool</text><text fill="#000000" font-family="sans-serif" font-size="14" lengthAdjust="spacing" textLength="148" x="271.5" y="656.1826">command_error: bool</text><text fill="#000000" font-family="sans-serif" font-size="14" lengthAdjust="spacing" textLength="107" x="271.5" y="672.4795">power_on: bool</text><text fill="#000000" font-family="sans-serif" font-size="14" lengthAdjust="spacing" textLength="4" x="271.5" y="688.7764"> </text><text fill="#000000" font-family="sans-serif" font-size="14" lengthAdjust="spacing" textLength="213" x="271.5" y="705.0732">EventStatusRegisterError: type</text><text fill="#000000" font-family="sans-serif" font-size="14" lengthAdjust="spacing" textLength="113" x="271.5" y="721.3701">QueryError: type</text><text fill="#000000" font-family="sans-serif" font-size="14" lengthAdjust="spacing" textLength="175" x="271.5" y="737.667">DeviceDependError: type</text><text fill="#000000" font-family="sans-serif" font-size="14" lengthAdjust="spacing" textLength="140" x="271.5" y="753.9639">ExecutionError: type</text><text fill="#000000" font-family="sans-serif" font-size="14" lengthAdjust="spacing" textLength="151" x="271.5" y="770.2607">CommandErrors: type</text><line style="stroke:#181818;stroke-width:0.5;" x1="266.5" x2="560.5" y1="777.5625" y2="777.5625"/><text fill="#000000" font-family="sans-serif" font-size="14" lengthAdjust="spacing" textLength="277" x="271.5" y="794.5576">set_by_bit_string(bit_string: str) -&gt; None</text><text fill="#000000" font-family="sans-serif" font-size="14" lengthAdjust="spacing" textLength="168" x="271.5" y="810.8545">properties_to_int() -&gt; int</text><text fill="#000000" font-family="sans-serif" font-size="14" lengthAdjust="spacing" textLength="4" x="271.5" y="827.1514"> </text><text fill="#000000" font-family="sans-serif" font-size="14" lengthAdjust="spacing" textLength="170" x="271.5" y="843.4482">set_command() -&gt; None</text><text fill="#000000" font-family="sans-serif" font-size="14" lengthAdjust="spacing" textLength="168" x="271.5" y="859.7451">query_command() -&gt; str</text><text fill="#000000" font-family="sans-serif" font-size="14" lengthAdjust="spacing" textLength="284" x="271.5" y="876.042">set_enable_register_command() -&gt; None</text><text fill="#000000" font-family="sans-serif" font-size="14" lengthAdjust="spacing" textLength="235" x="271.5" y="892.3389">raise_active_exceptions() -&gt; None</text></g><!--MD5=[521817ab83e81da341a3f4b5e91bae41]
class Command--><g id="elem_Command"><rect codeLine="36" fill="#F1F1F1" height="178.375" id="Command" rx="2.5" ry="2.5" style="stroke:#181818;stroke-width:0.5;" width="507" x="7" y="304"/><ellipse cx="220.75" cy="320" fill="#ADD1B2" rx="11" ry="11" style="stroke:#181818;stroke-width:1.0;"/><path d="M223.7188,325.6406 Q223.1406,325.9375 222.5,326.0781 Q221.8594,326.2344 221.1563,326.2344 Q218.6563,326.2344 217.3281,324.5938 Q216.0156,322.9375 216.0156,319.8125 Q216.0156,316.6875 217.3281,315.0313 Q218.6563,313.375 221.1563,313.375 Q221.8594,313.375 222.5,313.5313 Q223.1563,313.6875 223.7188,313.9844 L223.7188,316.7031 Q223.0938,316.125 222.5,315.8594 Q221.9063,315.5781 221.2813,315.5781 Q219.9375,315.5781 219.25,316.6563 Q218.5625,317.7188 218.5625,319.8125 Q218.5625,321.9063 219.25,322.9844 Q219.9375,324.0469 221.2813,324.0469 Q221.9063,324.0469 222.5,323.7813 Q223.0938,323.5 223.7188,322.9219 L223.7188,325.6406 Z " fill="#000000"/><text fill="#000000" font-family="sans-serif" font-size="14" lengthAdjust="spacing" textLength="71" x="241.25" y="324.8467">Command</text><line style="stroke:#181818;stroke-width:0.5;" x1="8" x2="513" y1="336" y2="336"/><text fill="#000000" font-family="sans-serif" font-size="14" lengthAdjust="spacing" textLength="131" x="13" y="352.9951">scpi_command: str</text><text fill="#000000" font-family="sans-serif" font-size="14" lengthAdjust="spacing" textLength="274" x="13" y="369.292">raise_exceptions: Optional[bool] = True</text><text fill="#000000" font-family="sans-serif" font-size="14" lengthAdjust="spacing" textLength="369" x="13" y="385.5889">check_operation_complete_bit: Optional[bool] = True</text><text fill="#000000" font-family="sans-serif" font-size="14" lengthAdjust="spacing" textLength="311" x="13" y="401.8857">await_esr_sleep_time: Optional[float] = 0.005</text><text fill="#000000" font-family="sans-serif" font-size="14" lengthAdjust="spacing" textLength="411" x="13" y="418.1826">await_operation_complete_bit_timeout: Optional[float] = 1.0</text><text fill="#000000" font-family="sans-serif" font-size="14" lengthAdjust="spacing" textLength="262" x="13" y="434.4795">ignore_timeout: Optional[bool] = True</text><line style="stroke:#181818;stroke-width:0.5;" x1="8" x2="513" y1="441.7813" y2="441.7813"/><text fill="#000000" font-family="sans-serif" font-size="14" lengthAdjust="spacing" textLength="396" x="13" y="458.7764">__call__(client: pyvisa.Resource, delay=None *args) -&gt; str</text><text fill="#000000" font-family="sans-serif" font-size="14" lengthAdjust="spacing" textLength="495" x="13" y="475.0732">check_operation_complete(esr: EventStatusRegister, **kwargs) -&gt; bool</text></g><!--MD5=[546e143950d5f208707f759259e1bffc]
link Register to Command--><g id="link_Register_Command"><path codeLine="48" d="M433.47,244.11 C414.9,259.98 394.1,277.76 373.55,295.34 " fill="none" id="Register-to-Command" style="stroke:#181818;stroke-width:1.0;"/><polygon fill="none" points="363.48,303.94,370.6396,303.08,372.5995,296.1403,365.4398,297.0003,363.48,303.94" style="stroke:#181818;stroke-width:1.0;"/></g><!--MD5=[90d6b422d90695afe1fd96c241c5092f]
link Intrument to Command--><g id="link_Intrument_Command"><path codeLine="49" d="M342.05,71.31 C325.37,87.39 307.12,108.35 296.5,131 C273.29,180.52 263.91,240.72 260.5,290.82 " fill="none" id="Intrument-to-Command" style="stroke:#181818;stroke-width:1.0;"/><polygon fill="none" points="259.72,303.99,264.0628,298.2333,260.4193,292.0104,256.0764,297.7671,259.72,303.99" style="stroke:#181818;stroke-width:1.0;"/></g><!--MD5=[43e7b9b15a74560f99a8a55e98b30129]
link ESRRegister to Register--><g id="link_ESRRegister_Register"><path codeLine="50" d="M512.46,541.99 C520.2,522.21 526.82,501.98 531.5,482 C549.55,404.97 542.47,382.35 531.5,304 C529.66,290.83 526.68,277.06 523.26,263.8 " fill="none" id="ESRRegister-to-Register" style="stroke:#181818;stroke-width:1.0;"/><polygon fill="none" points="516.43,265.37,517.8,244.22,529.92,261.61,516.43,265.37" style="stroke:#181818;stroke-width:1.0;"/></g><!--MD5=[f6f5ac11b87eed129262afc1a6efac58]
link Command to ESRRegister--><g id="link_Command_ESRRegister"><path codeLine="51" d="M301.9,482.22 C308.95,497.24 316.51,513.35 324.25,529.83 " fill="none" id="Command-to-ESRRegister" style="stroke:#181818;stroke-width:1.0;"/><polygon fill="none" points="329.91,541.89,330.9799,534.7587,324.8087,531.0283,323.7388,538.1596,329.91,541.89" style="stroke:#181818;stroke-width:1.0;"/></g><!--MD5=[4972df74ae19166b269a779f4cf72566]
link Intrument to Register--><g id="link_Intrument_Register"><path codeLine="52" d="M404.74,71.07 C416.54,85.6 431.08,103.5 445.15,120.82 " fill="none" id="Intrument-to-Register" style="stroke:#181818;stroke-width:1.0;"/><polygon fill="none" points="453.36,130.93,452.6847,123.7506,445.7979,121.6126,446.4731,128.792,453.36,130.93" style="stroke:#181818;stroke-width:1.0;"/></g><!--MD5=[fafa3e68da008a3d87a6f6882aa327e8]
@startuml
abstract class Intrument {
    client: pyvisa.Resource
}

abstract class Register {
    client: pyvisa.Resource
    modifieable: bool

    set_by_bit_string(bit_string: str) -> None
    set_by_int(int_: int, register_length: int = 8) -> None
}

class ESRRegister{
    operation_complete: bool
    query_error: bool
    device_depend_error: bool
    execute_error: bool
    command_error: bool
    power_on: bool

    EventStatusRegisterError: type
    QueryError: type
    DeviceDependError: type
    ExecutionError: type
    CommandErrors: type

    set_by_bit_string(bit_string: str) -> None
    properties_to_int() -> int

    set_command() -> None
    query_command() -> str
    set_enable_register_command() -> None
    raise_active_exceptions() -> None
}

class Command {
    scpi_command: str
    raise_exceptions: Optional[bool] = True
    check_operation_complete_bit: Optional[bool] = True
    await_esr_sleep_time: Optional[float] = 0.005
    await_operation_complete_bit_timeout: Optional[float] = 1.0
    ignore_timeout: Optional[bool] = True

    __call__(client: pyvisa.Resource, delay=None *args) -> str
    check_operation_complete(esr: EventStatusRegister, **kwargs) -> bool
}

Register - -o  Command
Intrument - -o Command
ESRRegister - -|> Register
Command - -o ESRRegister
Intrument - -o Register
@enduml

PlantUML version 1.2022.7(Mon Aug 22 17:01:30 UTC 2022)
(GPL source distribution)
Java Runtime: OpenJDK Runtime Environment
JVM: OpenJDK 64-Bit Server VM
Default Encoding: UTF-8
Language: en
Country: null
--></g></svg>